# xmcd
#
# Track frame offsets: 
#        150
#        19458
#        52883
#        68134
#        78952
#        93253
#        114610
#        128698
#        147905
#        157768
#        177458
#        195569
#        230337
#
# Disc length: 3178 seconds
#
# Revision: 0
# Processed by: cddbd v1.5.2PL0 Copyright (c) Steve Scherf et al.
# Submitted via: ExactAudioCopy v0.95b3
#
DISCID=a30c680d
DTITLE=The Beatles  - The BRG White Album Remix D 2  FLAC
DYEAR=1900
DGENRE=
TTITLE0=Birthday [Remix 0906]
TTITLE1=Yer Blues
TTITLE2=Mother Nature's Son [version 07]
TTITLE3=Everybody's Got Something To Hide Except Me And My Monkey
TTITLE4=Sexy Sadie
TTITLE5=Helter Skelter [Remix 0904]
TTITLE6=Long, Long, Long
TTITLE7=Revolution 1
TTITLE8=Honey Pie
TTITLE9=Savoy Truffle
TTITLE10=Cry Baby Cry
TTITLE11=Revolution 9
TTITLE12=Good Night
EXTD=
EXTT0=
EXTT1=
EXTT2=
EXTT3=
EXTT4=
EXTT5=
EXTT6=
EXTT7=
EXTT8=
EXTT9=
EXTT10=
EXTT11=
EXTT12=
PLAYORDER=
